<svg height="24" viewBox="0 0 24 24" width="24" xmlns="http://www.w3.org/2000/svg"><path d="m5.84301215 4.55890685c3.40041049-3.40041049 8.91356525-3.40041049 12.31397575 0 3.3324022 3.33240229 3.3990503 8.69388415.1999441 12.10744955l-.1999441.2065262c-.91499.9149899-2.4453785 2.4097909-4.592823 4.486081-.8722463.8433449-2.2560735.8432365-3.128185-.0002448l-3.8496721-3.7486146c-.28422512-.2801759-.5319821-.5259081-.74329565-.7372216-3.4004105-3.4004105-3.4004105-8.91356525 0-12.31397575zm11.25331555 1.06066017c-2.8146241-2.81462405-7.37803132-2.81462405-10.19265538 0-2.81462406 2.81462406-2.81462406 7.37803128 0 10.19265538l1.6961881 1.6719643c.78282891.7650641 1.74256078 1.6972593 2.87893258 2.7963202.2907037.2811603.7519789.2811964 1.0427279.0000813l2.9743919-2.8895029c.6585099-.6441413 1.1920319-1.1704799 1.6004149-1.5788629 2.814624-2.8146241 2.814624-7.37803132 0-10.19265538zm-2.150116 1.99337945.0841184.07261815c.2662665.26626656.2904726.68293024.0726181.97654174l-.0726181.08411843-1.9693301 1.96966991 1.9693301 1.9696699c.2662665.2662666.2904726.6829303.0726181.9765418l-.0726181.0841184c-.2662666.2662666-.6829303.2904726-.9765418.0726181l-.0841184-.0726181-1.9696699-1.9693301-1.9696699 1.9693301c-.26626658.2662666-.68293026.2904726-.97654175.0726181l-.08411844-.0726181c-.26626656-.2662666-.29047261-.6829303-.07261815-.9765417l.07261815-.0841185 1.96933009-1.9696699-1.96933009-1.96966991c-.26626656-.26626656-.29047261-.68293024-.07261815-.97654174l.07261815-.08411843c.26626657-.26626656.68293025-.29047262.97654174-.07261815l.08411845.07261815 1.9696699 1.96933008 1.9696699-1.96933008c.2662666-.26626656.6829303-.29047262.9765418-.07261815z" fill="#212121"/></svg>